<?xml version="1.0" standalone="no"?>
<!DOCTYPE svg PUBLIC "-//W3C//DTD SVG 1.1//EN" "http://www.w3.org/Graphics/SVG/1.1/DTD/svg11.dtd" >
<svg xmlns="http://www.w3.org/2000/svg" xmlns:xlink="http://www.w3.org/1999/xlink" version="1.1">
<metadata>
Created by FontForge 20150318 at Tue Oct 27 14:28:37 2015
 By uniteet7
(IPAexGothic: Copyright(c) Information-technology Promotion Agency, Japan (IPA), 2003-2012. You must accept "http://ipafont.ipa.go.jp/ipa_font_license_v1.html" to use this product.), (WenQuanYi Zen Hei: Copyright (c) Qianqian Fang and WenQuanYi Board of Trustees), (HAN NOM A &#38; B: Copyright (c) CHAN NGUYEN, TV VIEN CHIEU, TO MINH TAM, 2005. All rights reserved.)
</metadata>
<defs>
<font id="MultiElements" horiz-adv-x="2048" vert-adv-y="2048" >
  <font-face 
    font-family="MultiElements"
    font-weight="400"
    font-stretch="normal"
    units-per-em="2048"
    panose-1="2 11 5 0 0 0 0 0 0 0"
    ascent="1802"
    descent="-246"
    bbox="-126 -362 2004 1761"
    underline-thickness="104"
    underline-position="-194"
    unicode-range="U+2E84-FA66"
  />
<missing-glyph 
d="M1843 -205h-1638v1966h1638v-1966zM1669 1655h-1288l645 -793zM1737 -17v1586l-643 -793zM956 776l-645 797v-1592zM1667 -99l-641 791l-643 -791h1284z" />
    <glyph glyph-name=".notdef" 
d="M1843 -205h-1638v1966h1638v-1966zM1669 1655h-1288l645 -793zM1737 -17v1586l-643 -793zM956 776l-645 797v-1592zM1667 -99l-641 791l-643 -791h1284z" />
    <glyph glyph-name="glyph1" horiz-adv-x="0" vert-adv-y="0" 
 />
    <glyph glyph-name="nonmarkingreturn" horiz-adv-x="0" vert-adv-y="0" 
 />
    <glyph glyph-name="uni2E84" unicode="&#x2e84;" vert-adv-y="0" 
d="M1788 360q-16 -144 -4 -248t44 -164t-120 -16t-268 260t-132 528t-16 656h-976l-72 -24l-56 64h1088l96 96l136 -144l-96 -64q-16 -336 8 -560t68 -364t120 -236t100 -4t56 220h24z" />
    <glyph glyph-name="uni2E88" unicode="&#x2e88;" vert-adv-y="0" 
d="M716 1660q108 -44 224 -66q-46 -112 -108 -226h778l10 -166q-56 -6 -96 -44q-18 -16 -140 -135t-138 -137l-124 128l204 198h-582q-152 -244 -320 -400q-110 -100 -238 -174q-48 96 -126 170q250 126 429 345t227 507z" />
    <glyph glyph-name="uni2E8C" unicode="&#x2e8c;" vert-adv-y="0" 
d="M1426 1598q90 -52 188 -86q-138 -234 -286 -406q-62 64 -144 104q156 120 242 388zM652 1134q-138 184 -308 348l144 104q180 -172 326 -366zM1100 1076q-52 4 -105 4t-105 -4q18 92 18 186v252q0 90 -18 180q52 -6 105 -6t105 6q-18 -90 -18 -180v-252q0 -94 18 -186z
" />
    <glyph glyph-name="uni2E8D" unicode="&#x2e8d;" vert-adv-y="0" 
d="M1580 1654q100 -30 204 -38q-96 -358 -318 -632q-64 62 -146 98q118 106 180 259t80 313zM996 1120q-128 244 -292 474l164 82q170 -238 304 -490zM586 974q-142 214 -318 412l154 96q184 -206 332 -432z" />
    <glyph glyph-name="uni2EA7" unicode="&#x2ea7;" vert-adv-y="0" 
d="M2004 1046q-4 -44 -4 -88t4 -88q-302 14 -604 14h-1252q-78 0 -152 -14q4 44 4 88t-4 88q52 -10 104 -14q-24 50 -60 94q158 42 257 179t93 311q102 -18 206 -16q-12 -78 -38 -154h368v38q0 90 -16 180q52 -6 104 -6t104 6q-18 -90 -18 -180v-38h220q200 0 400 16
q-4 -44 -4 -89t4 -89q-200 16 -400 16h-220v-268h300q302 0 604 14zM926 1032v268h-434q-96 -166 -254 -268h688z" />
    <glyph glyph-name="uni2EA9" unicode="&#x2ea9;" vert-adv-y="0" 
d="M788 -314q-34 102 -88 194l218 94l74 32v696h-114q-78 0 -152 -14q4 44 4 88t-4 88q74 -14 152 -14h114v638h-120q-76 0 -152 -16q4 44 4 89t-4 89q76 -16 152 -16h364q112 0 224 16q-4 -44 -4 -89t4 -89q-112 16 -224 16h-68v-638h24q102 0 202 14q-4 -44 -4 -88t4 -88
q-100 14 -202 14h-24v-628l268 104l24 -144q-248 -108 -389 -179t-283 -169z" />
    <glyph glyph-name="uni2EAC" unicode="&#x2eac;" vert-adv-y="0" 
d="M1482 110q-94 324 -238 634l172 58q150 -322 246 -656zM752 766q98 -18 198 -16q-60 -450 -324 -802q-66 58 -146 90q138 142 203 336t69 392zM1592 1144q-4 -40 -4 -81t4 -81q-154 14 -308 14h-94v-1044q0 -36 -2 -58t-14 -61t-35 -61t-71 -41t-114 -21q-14 -2 -64 -2
h-38q6 102 -12 202q94 -16 108 -16q74 0 74 36v1066h-310q-70 0 -138 -14q4 40 4 81t-4 81q68 -14 138 -14h572q154 0 308 14zM1434 1608q-4 -40 -4 -80t4 -80q-102 14 -204 14h-336q-70 0 -138 -14q4 40 4 80t-4 80q68 -14 138 -14h336q102 0 204 14z" />
    <glyph glyph-name="uni2EAE" unicode="&#x2eae;" vert-adv-y="0" 
d="M1716 1018q-154 182 -338 342l34 26h-104q-72 -178 -202 -314q-58 64 -134 106q110 82 163 218t43 290q100 -14 200 -6q-8 -82 -28 -160h414q120 0 240 12q-4 -38 -4 -79t4 -81q-120 14 -240 14h-162q142 -134 266 -278zM840 1192l-160 -78l-164 230l38 18h-84
q-124 -260 -374 -378q-30 82 -86 148q152 48 252 188t88 322q100 -14 200 -8q-10 -70 -28 -138h304q98 0 198 12q-6 -40 -6 -80t6 -80q-100 14 -198 14h-106z" />
    <glyph glyph-name="uni2EB6" unicode="&#x2eb6;" vert-adv-y="0" 
d="M696 1640q184 -80 224 -148t-8 -140t-84 28t-148 236zM1528 1568q-88 -32 -140 -92t-140 -180h264l136 112l160 -152h-712q-40 -176 -56 -256h336l120 96l128 -136h-592q-32 -128 -80 -248h568l152 112l176 -152h-912q-64 -136 -240 -328t-456 -328l-24 24
q176 128 324 264t268 368h-256q-112 0 -192 -24l-72 64h536q56 128 88 248h-208q-96 0 -176 -24l-88 64h480q24 112 40 256h-328q-96 0 -192 -24l-72 64h832q136 248 160 368z" />
    <glyph glyph-name="uni2EBA" unicode="&#x2eba;" vert-adv-y="0" 
d="M1060 -312q-104 10 -208 0q16 302 16 604v322h-462q-76 0 -152 -14q10 88 0 176q76 -14 152 -14h462v162h-720q-78 0 -152 -16q8 88 0 178q74 -16 152 -16h720v148h-508q-78 0 -152 -16q8 88 0 178q74 -16 152 -16h508q8 180 -16 334q104 -10 208 0q-24 -154 -16 -334
h604v-290q178 2 356 12q-8 -88 0 -178q-178 10 -356 12v-402h-174v96h-430v-322q0 -302 16 -604zM1044 762h430v162h-430v-162zM1044 1070h430v148h-430v-148z" />
    <glyph glyph-name="uni2EBB" unicode="&#x2ebb;" vert-adv-y="0" 
d="M1994 692q-4 -40 -4 -80t4 -80q-296 12 -594 12h-1240q-70 0 -138 -12q4 40 4 80t-4 80q68 -14 138 -14h684v182h-390q-70 0 -138 -14q4 40 4 80t-4 80q68 -12 138 -12h390v110h-654q-70 0 -138 -14q4 40 4 80t-4 80q68 -14 138 -14h654v132h-390q-70 0 -138 -14
q4 40 4 80t-4 80q68 -14 138 -14h390q-2 82 -18 162q52 -4 102 -4t100 4q-14 -80 -16 -162h562v-262q186 4 374 12q-4 -40 -4 -80t4 -80q-188 8 -374 12v-176v-66h-436h-126v-182h388q298 0 594 14zM1012 994h126h268v110h-28h-366v-110zM1012 1236h366h28v132h-394v-132z
" />
    <glyph glyph-name="uni2EBC" unicode="&#x2ebc;" vert-adv-y="0" 
d="M1058 902q-150 188 -332 356l140 106q190 -176 348 -374zM1064 -292q8 96 -14 192q108 -10 188 -10q10 0 33 -1t36 -1t32 1t30 5t22 10t16 16t5 26v1534h-700h-54v-102l4 -908l182 94q154 74 464 214l32 -136q-222 -112 -345 -186t-243 -178q-38 90 -90 170v-4
q0 -254 -98 -456t-284 -322q-42 94 -116 168q134 54 218 174q110 160 108 436l-4 934v240v2h226h872v-1642q0 -50 -2 -77t-13 -66t-33 -67q-32 -40 -88 -58t-101 -17t-117 8t-102 7h-64z" />
    <glyph glyph-name="uni2ECF" unicode="&#x2ecf;" 
d="M1096 1503h770l77 -65q-123 -293 -268 -517l-14 -24q330 -262 330 -541q0 -264 -266 -264q-145 0 -320 29l-31 155q186 -39 324 -39q141 0 141 139q0 230 -352 496l16 25q163 245 254 473h-514v-1513h-147v1646z" />
    <glyph glyph-name="uni2ED6" unicode="&#x2ed6;" vert-adv-y="1802" 
d="M96 1503h770l77 -65q-123 -293 -268 -517l-14 -24q330 -262 330 -541q0 -264 -266 -264q-145 0 -320 29l-31 155q186 -39 324 -39q141 0 141 139q0 230 -352 496l16 25q163 245 254 473h-514v-1513h-147v1646zM96 1503h770l77 -65q-123 -293 -268 -517l-14 -24
q330 -262 330 -541q0 -264 -266 -264q-145 0 -320 29l-31 155q186 -39 324 -39q141 0 141 139q0 230 -352 496l16 25q163 245 254 473h-514v-1513h-147v1646z" />
    <glyph glyph-name="uni2ED7" unicode="&#x2ed7;" vert-adv-y="0" 
d="M1684 1026q-4 -36 -4 -73t4 -73q-80 12 -158 12h-238q-64 0 -126 -12q4 36 4 73t-4 73q62 -12 126 -12h238q78 0 158 12zM1658 1252q-4 -38 -4 -75t4 -73q-74 12 -150 12h-220q-64 0 -126 -12q4 36 4 73t-4 75q62 -12 126 -12h220q76 0 150 12zM820 1022q-4 -38 -4 -75
t4 -73q-78 12 -158 12h-236q-64 0 -126 -12q4 36 4 73t-4 75q62 -12 126 -12h236q80 0 158 12zM826 1256q-4 -36 -4 -73t4 -73q-78 12 -156 12h-234q-64 0 -126 -12q4 36 4 73t-4 73q62 -12 126 -12h234q78 0 156 12zM1122 862q-50 6 -99 6t-97 -6q16 110 16 218v244h-708
h-40v-102v-184h-164v184v224v0h204h708v70h-530q-64 0 -128 -12q4 36 4 73t-4 75q64 -12 128 -12h910q222 0 446 12q-4 -38 -4 -75t4 -73q-224 12 -446 12h-218v-70h866v-408h-164v286h-702v-244q0 -110 18 -218z" />
    <glyph glyph-name="uni38FA" unicode="&#x38fa;" 
d="M815 788h150v-772q0 -96 -43 -126q-33 -27 -121 -27q-104 0 -199 16l-33 156q107 -27 189 -27q57 0 57 64v716zM1297 4q-85 265 -211 492l129 45q149 -252 225 -465zM1710 27q-142 269 -340 493l109 74q191 -198 368 -465zM264 84q181 211 256 457l138 -49
q-91 -275 -261 -496z" />
    <glyph glyph-name="uni516C" unicode="&#x516c;" vert-adv-y="0" 
d="M124 739q396 326 541 858l153 -45q-182 -596 -575 -925zM1810 686q-438 364 -670 881l141 49q219 -484 643 -795z" />
    <glyph glyph-name="uni5726" unicode="&#x5726;" vert-adv-y="0" 
d="M953 1198v448h150v-448h281v-137h-281v-625q134 55 289 125l20 -127q-304 -158 -707 -315l-69 145q177 59 301 107l16 6v684h-291v137h291z" />
    <glyph glyph-name="uni5FCC" unicode="&#x5fcc;" vert-adv-y="0" 
d="M125 16q158 180 231 473l140 -51q-76 -297 -238 -518zM631 520h150v-411q0 -52 37 -64q46 -12 258 -12q130 0 209 8q71 9 86 55q10 39 16 142l2 28l146 -41q-22 -210 -54 -257q-34 -47 -120 -60q-87 -14 -314 -14q-281 0 -344 29q-72 34 -72 138v459zM1129 190
q-107 185 -236 328l125 66q128 -131 242 -310zM1788 -23q-155 300 -324 490l123 72q213 -242 336 -463z" />
    <glyph glyph-name="uni672D" unicode="&#x672d;" vert-adv-y="0" 
d="M976 871q-114 -336 -328 -635l-100 133q272 330 401 762h-356v133h383v414h150v-414h346v-133h-346v-186q217 -186 373 -357l-92 -139q-154 202 -281 338v-930h-150v1014z" />
    <glyph glyph-name="uni706F" unicode="&#x706f;" vert-adv-y="0" 
d="M1017 403q-68 -313 -307 -567l-111 119q215 217 279 489q47 205 47 502v721h145v-657q0 -272 -25 -453l11 -8q194 -163 399 -395l-111 -138q-181 238 -319 379zM593 739q65 206 86 531l139 -17q-28 -380 -88 -581zM1099 899q106 193 186 426l144 -51q-109 -270 -215 -447
z" />
    <glyph glyph-name="uni722B" unicode="&#x722b;" 
d="M432 1126l65 2q593 22 1112 111l121 -115q-596 -95 -1157 -123h-18q-85 -341 -256 -567l-117 103q167 226 250 589zM993 498q-45 225 -121 405l135 39q91 -213 133 -397zM1712 499q-137 249 -309 443l118 61q184 -192 324 -420z" />
    <glyph glyph-name="uni5229" unicode="&#x5229;" vert-adv-y="0" 
d="M977 772q-115 -303 -330 -561l-96 133q261 272 399 655h-381v131h408v278q-147 -28 -297 -47l-70 119q410 55 737 170l103 -129q-184 -56 -328 -84v-307h375v-131h-375v-180l25 -17q181 -112 342 -264l-93 -143q-119 143 -274 274v-813h-145v916z" />
    <glyph glyph-name="uni7C75" unicode="&#x7c75;" vert-adv-y="0" 
d="M967 578q-105 -261 -285 -475l-94 131q246 256 362 598h-335v129h352v739h141v-739h297v-129h-297v-133l18 -14q160 -130 299 -281l-90 -150q-114 156 -227 281v-678h-141v721zM764 1067q-44 238 -125 419l129 54q89 -211 135 -428zM1159 1114q88 192 152 448l149 -41
q-84 -264 -174 -450z" />
    <glyph glyph-name="uni8FB6" unicode="&#x8fb6;" 
d="M631 286q86 -116 231 -166q166 -53 533 -53q235 0 557 25q-31 -71 -53 -154q-213 -8 -439 -8q-453 0 -610 47q-179 56 -288 205l-5 6q-148 -162 -323 -291l-84 142q193 115 342 251v322h-336v129h475v-455zM590 1292q-152 140 -303 230l86 108q178 -109 303 -225z
M541 899q-141 129 -325 236l81 108q171 -97 328 -225z" />
    <glyph glyph-name="uni9FB0" unicode="&#x9fb0;" vert-adv-y="0" 
d="M390 854q112 -12 226 0q0 -236 -84 -508q82 -258 316 -380q110 -62 231 -81t184 -26t187 -11l510 -4q-78 -88 -78 -206q-206 16 -407 21t-311 21q-496 78 -718 438q-114 -270 -320 -442q-62 84 -150 140q116 90 211 212t134 233t53 223q22 162 16 370zM1728 726
q-10 -84 0 -168q-104 14 -206 14h-330q-42 0 -84 -4v-638h-172v1014q0 88 -18 176q104 -10 206 0q-16 -88 -16 -176v-228q42 -4 84 -4h330q102 0 206 14z" />
    <glyph glyph-name="uni9FB4" unicode="&#x9fb4;" vert-adv-y="0" 
d="M400 924q-80 0 -160 -16q10 94 0 188q80 -16 160 -16h1410l12 -166q-76 -30 -134 -86l-432 -446l252 -282l-160 -94l-284 318l-294 300l148 106l216 -220l400 414h-1134z" />
    <glyph glyph-name="uni9FB7" unicode="&#x9fb7;" vert-adv-y="0" 
d="M2000 1090q-10 -84 0 -168q-300 14 -598 14h-1246q-74 0 -146 -14q10 84 0 168q72 -14 146 -14h374v210h-186q-74 0 -144 -14q8 84 0 170q70 -14 144 -14h186q4 124 -16 234q102 -10 204 0q-20 -110 -16 -234h612q4 138 -18 260q104 -10 206 0q-22 -122 -16 -258
q140 2 280 12q-10 -84 0 -170q-140 10 -280 12v-208q256 2 514 14zM1314 1076v210h-612v-210h612z" />
    <glyph glyph-name="uni9FB9" unicode="&#x9fb9;" vert-adv-y="1802" 
d="M575 645q-155 -165 -371 -315l-102 106q303 181 475 414h-455v119h525q61 96 112 215h-538v119h586q72 212 102 407l149 -22q-37 -207 -100 -385h270q115 178 189 358l149 -49q-115 -214 -182 -309h440v-119h-565q63 -111 156 -215h508v-119h-420q174 -183 467 -336
l-103 -123q-337 203 -538 459h-592q-65 -93 -133 -174zM911 1184q-53 -127 -109 -215h455q-80 111 -137 215h-209zM575 1311q-78 169 -164 272l129 70q97 -125 170 -269z" />
    <glyph glyph-name="uniFA49" unicode="&#xfa49;" 
d="M555 457q-111 279 -229 448l143 53q132 -202 238 -446zM975 512q-75 253 -189 446l144 51q106 -183 192 -436zM1245 510q180 255 318 588l157 -74q-168 -346 -342 -582zM168 1163q921 59 1442 188l127 -131q-665 -129 -1501 -186z" />
    <glyph glyph-name="uniFA5E" unicode="&#xfa5e;" vert-adv-y="1802" 
d="M1368 1006v297h156v-297h419v-147h-419v-252h-156v252h-308v147h308zM669 1006h307v-147h-307v-252h-156v252h-408v147h408v297h156v-297z" />
    <glyph glyph-name="uniFA66" unicode="&#xfa66;" 
d="M627 284q80 -99 174 -141q164 -76 594 -76q260 0 563 27q-37 -78 -59 -156q-196 -8 -416 -8q-527 0 -698 72q-133 56 -232 186q-120 -138 -319 -293l-86 144q181 104 332 241v459h-324v135h471v-590zM555 1159q-132 175 -319 344l108 94q169 -131 324 -325z" />
    <glyph glyph-name="u53B7" unicode="&#x53b7;" vert-adv-y="0" 
d="M928 1108q0 194 -3 321t-3 201l192 -90l-64 -58v-374h554l116 102l140 -154h-810q0 -84 -19 -176t-45 -194q-74 -238 -262 -438q-198 -216 -530 -360l-6 34q122 70 219 141t169 161q80 90 143 179t107 185q92 194 102 468h-544q-68 0 -128 -18l-68 70h740v0z" />
    <glyph glyph-name="u4E5E" unicode="&#x4e5e;" 
d="M662 1004h1181v-143h-1253q0 -1 -4 -7q-3 -4 -4 -7q-124 -235 -312 -432l-106 108q349 352 483 911l156 -35q-67 -227 -141 -395z" />
    <glyph glyph-name="u31D7" unicode="&#x31d7;" vert-adv-y="0" 
d="M414 1406v-1400h1132l124 112l150 -164h-1406l-72 -84l-114 96l58 70v932q0 102 -1 242t-5 326l192 -70z" />
    <glyph glyph-name="u31C6" unicode="&#x31c6;" vert-adv-y="0" 
d="M1640 1482l54 86l138 -86l-60 -72q-10 -682 -18 -972q-16 -154 -35 -261t-47 -167q-56 -126 -230 -200q-26 130 -418 206v38q150 -20 249 -29t151 -9q86 0 130 50q22 26 40 118t34 254q18 306 18 984h-1204q-46 0 -83 -4t-71 -8l-72 72h1424z" />
    <glyph glyph-name="u31D5" unicode="&#x31d5;" vert-adv-y="0" 
d="M482 1420q-40 0 -80 -4t-74 -8l-76 64h1356l70 94l118 -100l-60 -52v-1096v-222t6 -186l-128 -50q0 86 3 176t3 182v1202h-1138z" />
    <glyph glyph-name="u5449" unicode="&#x5449;" vert-adv-y="0" 
d="M314 864q0 260 -1 446t-5 304l210 -74l-74 -68v-636h1126l74 102l158 -114l-82 -62v-446v-220q0 -112 6 -238l-134 -48v966h-1142l-76 -56l-134 96l74 48v0z" />
    <glyph glyph-name="u319F" unicode="&#x319f;" 
d="M90 563q524 219 834 793h178q325 -509 862 -746l-102 -141q-529 269 -846 748q-292 -520 -828 -783z" />
    <glyph glyph-name="u2E87" unicode="&#x2e87;" 
d="M1650 1573v-524q0 -523 84 -803q31 -96 49 -96q36 0 64 315l131 -112q-65 -455 -183 -455q-83 0 -172 205q-123 286 -123 932v405h-1016v-448q0 -419 -55 -658q-58 -255 -223 -463l-102 121q156 199 202 475q31 188 31 512v594h1313z" />
    <glyph glyph-name="u9FBA" unicode="&#x9fba;" 
d="M1089 506v-160h584v-121h-584v-369h-143v369h-571v121h571v160h-362v670h362v153h-485v123h485v248h143v-248h498v-123h-498v-153h373v-670h-373zM727 1061v-162h593v162h-593zM727 788v-167h593v167h-593z" />
    <glyph glyph-name="u5949" unicode="&#x5949;" 
d="M678 780q37 60 80 156h-435v115h480q40 129 47 153h-592v119h622l7 23q17 76 36 188l146 -21q-28 -139 -39 -190h758v-119h-789q-22 -72 -49 -153h772v-115h-446q51 -88 108 -156h537v-119h-438q167 -162 471 -307l-99 -133q-351 201 -547 440h-546q-204 -287 -568 -510
l-100 119q310 155 506 391h-475v119h553zM907 936q-43 -102 -74 -156h391q-48 80 -90 156h-227z" />
    <glyph glyph-name="u6B65" unicode="&#x6b65;" vert-adv-y="0" 
d="M1150 1542l-58 -58v-858v-86t4 -88l-134 -66q0 58 4 209t4 411q0 252 -4 402t-4 200zM784 1142l-78 -38q-114 -212 -255 -378t-309 -300l-28 26q96 110 176 218t146 212q66 106 106 197t62 167zM1894 1006l-68 -42q-204 -294 -391 -495t-381 -309q-188 -110 -402 -189
t-466 -129l8 38q154 52 304 106t286 124q136 72 265 163t251 209q124 116 231 269t201 353z" />
    <glyph glyph-name="u2EAA" unicode="&#x2eaa;" 
d="M1104 276q145 39 404 125l20 -125q-510 -185 -1046 -317l-74 143q112 26 137 31l37 8v940h145v-905q5 1 232 59v944l12 8q177 123 303 240h-786v129h972l70 -80q-191 -175 -426 -340v-264h393v-127h-393v-469z" />
    <glyph glyph-name="u2EB7" unicode="&#x2eb7;" 
d="M1166 1247q150 251 207 420l163 -53q-106 -219 -204 -367h471v-133h-709v-412h616v-133h-616v-491h801v-137h-1741v137h786v491h-602v133h602v412h-694v133h920zM695 1282q-73 185 -170 313l141 66q106 -138 186 -315z" />
    <glyph glyph-name="u54C0" unicode="&#x54c0;" vert-adv-y="0" 
d="M1192 320l20 -36q-470 -352 -490 -444l-90 150q40 46 40 180v636q-108 -128 -246 -239t-320 -207l-6 30q264 180 470 480q218 296 378 744l150 -108q-66 -72 -82 -102q38 -176 88 -321t108 -265q284 214 404 468l138 -164q-94 -34 -214 -120q-42 -40 -121 -97t-193 -137
q114 -284 308 -454q186 -162 372 -188v-32q-144 -8 -190 -116q-214 110 -422 438q-202 324 -314 926q-58 -120 -106 -214t-90 -166v-874z" />
    <glyph glyph-name="u2ECA" unicode="&#x2eca;" 
d="M957 975h-365v620h819v-620h-307v-299h354v-125h-354v-397q298 82 428 127l8 -131q-487 -170 -1014 -279l-69 146q22 3 127 22l37 8v760h152v-729l139 31l45 10v856zM1255 1100v368h-507v-368h507z" />
    <glyph glyph-name="u2EDE" unicode="&#x2ede;" 
d="M196 1159q-47 -52 -101 -106h656v-575h-547v-127h579v-109h-579v-131h616v-111h-616v-143h-137v1169q-43 -37 -107 -89l-86 116q310 227 479 643l142 -35q-17 -37 -31 -65l24 -17q219 -146 435 -342l-93 -125q-282 267 -419 375q-58 -111 -131 -219h344v-109h-428z
M619 947h-415v-128h415v128zM204 721v-139h415v139h-415z" />
    <glyph glyph-name="NULL" horiz-adv-x="0" vert-adv-y="0" 
 />
  </font>
</defs>
</svg>
